# xmcd
#
# Track frame offsets:
#	150
#	6459
#	19813
#	28120
#	42416
#	54589
#	68498
#	79996
#	89562
#	111488
#	124214
#	126295
#	132084
#	144722
#	163589
#	176255
#	182810
#	190079
#	201003
#	221248
#	235330
#	242198
#
# Disc length: 3978 seconds
#
# Revision: 1
# Processed by: cddbd v1.5.2PL0 Copyright (c) Steve Scherf et al.
# Submitted via: EZCDAudioConverter 7.1.2.1
#
DISCID=490f8816
DTITLE=Humpa Brass - Masslos
DYEAR=2004
DGENRE=Blues
TTITLE0=Sohmpolka
TTITLE1=Stelldichein In Oberkrain
TTITLE2=Eviva Espana
TTITLE3=Heidrunpolka
TTITLE4=Rozhlasmarsch
TTITLE5=Guillaume Tell Ouverture
TTITLE6=Bugler's Holiday
TTITLE7=Zwei Freunde
TTITLE8=Floretiner Marsch
TTITLE9=Tuba Mukl
TTITLE10=Schneidi's Abartiger Auftakt Zur Noch Abartigeren 2. Runde
TTITLE11=Marina
TTITLE12=Sugar Blues
TTITLE13=Copacabana
TTITLE14=Something Stupid
TTITLE15=Trompetenpolka
TTITLE16=Just A Closer Walk (With Thee)
TTITLE17=Wo's Paprika Und Frauen Gibt
TTITLE18=Always Look On The Bright Side Of Live
TTITLE19=Heimwehmelodie
TTITLE20=Hansi-Polka
TTITLE21=(Meet) The Flintstones
EXTD=
EXTT0=
EXTT1=
EXTT2=
EXTT3=
EXTT4=
EXTT5=
EXTT6=
EXTT7=
EXTT8=
EXTT9=
EXTT10=
EXTT11=
EXTT12=
EXTT13=
EXTT14=
EXTT15=
EXTT16=
EXTT17=
EXTT18=
EXTT19=
EXTT20=
EXTT21=
PLAYORDER=
